<svg width="24" height="24" viewBox="0 0 24 24" fill="none" xmlns="http://www.w3.org/2000/svg">
<path d="M12.8572 12.858C13.7604 12.858 14.5012 13.557 14.5667 14.4443L14.5714 14.5723V15H14.3571C13.9374 15 13.558 15.1724 13.2857 15.4503V14.5723C13.2857 14.3628 13.1333 14.1871 12.9339 14.1507L12.8572 14.1437L3.42858 14.1429L3.3423 14.1514C3.23569 14.1731 3.16287 14.231 3.12515 14.268C3.08812 14.3057 3.03025 14.378 3.00858 14.4849L3.00001 14.5714V16.7143C3.00001 17.862 3.50315 18.7106 4.53858 19.3071C5.3926 19.8006 6.58659 20.0982 7.85016 20.1382L8.14287 20.1429L8.51561 20.1341C9.56066 20.0875 11.8939 19.8089 12.8572 18.2862V18.8571H12.8723C12.8623 18.9272 12.8572 18.9987 12.8572 19.0714C12.8572 19.3845 12.9531 19.6752 13.1171 19.9157C11.7946 21.0243 9.80186 21.4286 8.14287 21.4286C5.44395 21.4286 1.86091 20.3584 1.71867 16.9273L1.71429 16.7143V14.5714C1.71429 13.6682 2.41407 12.9273 3.3007 12.8619L3.42858 12.8572L12.8572 12.858ZM13.7143 16.5C13.7143 16.145 14.0021 15.8571 14.3571 15.8571H21.6429C21.9228 15.8571 22.1609 16.036 22.2491 16.2857C22.2729 16.3527 22.2857 16.4248 22.2857 16.5C22.2857 16.855 21.9979 17.1429 21.6429 17.1429H14.3571C14.0021 17.1429 13.7143 16.855 13.7143 16.5ZM14.3571 18.4286C14.3151 18.4286 14.2738 18.4326 14.234 18.4403C13.9379 18.4978 13.7143 18.7585 13.7143 19.0714C13.7143 19.1397 13.7249 19.2056 13.7447 19.2673C13.8275 19.5266 14.0704 19.7143 14.3571 19.7143H21.6429C21.9979 19.7143 22.2857 19.4265 22.2857 19.0714C22.2857 18.7164 21.9979 18.4286 21.6429 18.4286H14.3571ZM21.6429 15C21.8729 15 22.0909 15.0518 22.2857 15.1443V14.5714L22.2806 14.4372C22.2153 13.5957 21.5416 12.9241 20.6993 12.8619L20.5714 12.8572L14.76 12.858L14.8753 12.9947C15.1332 13.3229 15.3129 13.7139 15.3849 14.1437L20.5714 14.1429L20.6482 14.1498C20.8476 14.1861 21 14.3612 21 14.5714V15H21.6429ZM8.14287 1.71429C10.7469 1.71429 12.8572 3.82544 12.8572 6.42858C12.8572 9.03172 10.7469 11.1429 8.14287 11.1429C5.53887 11.1429 3.42858 9.03172 3.42858 6.42858C3.42858 3.82544 5.53887 1.71429 8.14287 1.71429ZM8.14287 3.00001C6.25201 3.00001 4.71429 4.53772 4.71429 6.42858C4.71429 8.31944 6.25201 9.85715 8.14287 9.85715C10.0337 9.85715 11.5714 8.31944 11.5714 6.42858C11.5714 4.53772 10.0337 3.00001 8.14287 3.00001ZM17.5714 3.42858C19.7014 3.42858 21.4286 5.15572 21.4286 7.28572C21.4286 9.41572 19.7014 11.1429 17.5714 11.1429C15.4414 11.1429 13.7143 9.41572 13.7143 7.28572C13.7143 5.15572 15.4414 3.42858 17.5714 3.42858ZM17.5714 4.71429C16.1537 4.71429 15 5.86801 15 7.28572C15 8.70344 16.1537 9.85715 17.5714 9.85715C18.9891 9.85715 20.1429 8.70344 20.1429 7.28572C20.1429 5.86801 18.9891 4.71429 17.5714 4.71429ZM13.7143 21.6429C13.7143 21.2878 14.0021 21 14.3571 21H21.6429C21.9979 21 22.2857 21.2878 22.2857 21.6429C22.2857 21.9979 21.9979 22.2857 21.6429 22.2857H14.3571C14.0021 22.2857 13.7143 21.9979 13.7143 21.6429Z" fill="#C0C0C0"/>
</svg>
