<svg width="24" height="24" viewBox="0 0 24 24" fill="none" xmlns="http://www.w3.org/2000/svg">
<path d="M10.5 11.25C10.5 10.8358 10.8358 10.5 11.25 10.5H15.75C16.1642 10.5 16.5 10.8358 16.5 11.25C16.5 11.6642 16.1642 12 15.75 12H11.25C10.8358 12 10.5 11.6642 10.5 11.25ZM10.5 15.75C10.5 15.3358 10.8358 15 11.25 15H15.75C16.1642 15 16.5 15.3358 16.5 15.75C16.5 16.1642 16.1642 16.5 15.75 16.5H11.25C10.8358 16.5 10.5 16.1642 10.5 15.75ZM8.25026 12C8.66448 12 9.00026 11.6642 9.00026 11.25C9.00026 10.8358 8.66448 10.5 8.25026 10.5C7.83605 10.5 7.50026 10.8358 7.50026 11.25C7.50026 11.6642 7.83605 12 8.25026 12ZM8.25 16.5C8.66421 16.5 9 16.1642 9 15.75C9 15.3358 8.66421 15 8.25 15C7.83579 15 7.5 15.3358 7.5 15.75C7.5 16.1642 7.83579 16.5 8.25 16.5ZM7.62803 3C7.93691 2.1261 8.77034 1.5 9.75 1.5H14.25C15.2297 1.5 16.0631 2.1261 16.3719 3H17.25C18.4926 3 19.5 4.00735 19.5 5.25V20.25C19.5 21.4926 18.4926 22.5 17.25 22.5H6.75C5.50735 22.5 4.5 21.4926 4.5 20.25V5.25C4.5 4.00735 5.50735 3 6.75 3H7.62803ZM9.75 3C9.33579 3 9 3.33579 9 3.75C9 4.16421 9.33579 4.5 9.75 4.5H14.25C14.6642 4.5 15 4.16421 15 3.75C15 3.33579 14.6642 3 14.25 3H9.75ZM7.62803 4.5H6.75C6.33579 4.5 6 4.83579 6 5.25V20.25C6 20.6642 6.33579 21 6.75 21H17.25C17.6642 21 18 20.6642 18 20.25V5.25C18 4.83579 17.6642 4.5 17.25 4.5H16.3719C16.0631 5.3739 15.2297 6 14.25 6H9.75C8.77034 6 7.93691 5.3739 7.62803 4.5Z" fill="#C0C0C0"/>
</svg>
