<svg width="24" height="24" viewBox="0 0 24 24" fill="none" xmlns="http://www.w3.org/2000/svg">
<path d="M16.25 13C15.5597 13 15 12.4403 15 11.75C15 11.0597 15.5597 10.5 16.25 10.5C16.9403 10.5 17.5 11.0597 17.5 11.75C17.5 12.4403 16.9403 13 16.25 13ZM10.75 11.75C10.75 12.4403 11.3097 13 12 13C12.6903 13 13.25 12.4403 13.25 11.75C13.25 11.0597 12.6903 10.5 12 10.5C11.3097 10.5 10.75 11.0597 10.75 11.75ZM7.75 13C7.05965 13 6.5 12.4403 6.5 11.75C6.5 11.0597 7.05965 10.5 7.75 10.5C8.44035 10.5 9 11.0597 9 11.75C9 12.4403 8.44035 13 7.75 13ZM15 15.75C15 16.4403 15.5597 17 16.25 17C16.9403 17 17.5 16.4403 17.5 15.75C17.5 15.0597 16.9403 14.5 16.25 14.5C15.5597 14.5 15 15.0597 15 15.75ZM12 17C11.3097 17 10.75 16.4403 10.75 15.75C10.75 15.0597 11.3097 14.5 12 14.5C12.6903 14.5 13.25 15.0597 13.25 15.75C13.25 16.4403 12.6903 17 12 17ZM21 6.125C21 4.39911 19.6009 3 17.875 3H6.125C4.39911 3 3 4.39911 3 6.125V17.875C3 19.6009 4.39911 21 6.125 21H17.875C19.6009 21 21 19.6009 21 17.875V6.125ZM17.875 4.25C18.9106 4.25 19.75 5.08945 19.75 6.125V7H4.25V6.125C4.25 5.08945 5.08945 4.25 6.125 4.25H17.875ZM19.75 17.875C19.75 18.9106 18.9106 19.75 17.875 19.75H6.125C5.08945 19.75 4.25 18.9106 4.25 17.875V8.25H19.75V17.875Z" fill="#C0C0C0"/>
</svg>
