<svg width="24" height="24" viewBox="0 0 24 24" fill="none" xmlns="http://www.w3.org/2000/svg">
<path d="M4.80054 2.40002C3.47509 2.40002 2.40061 3.47454 2.40061 4.80002V9.60002H3.60058V4.80002C3.60058 4.13729 4.13782 3.60002 4.80054 3.60002H19.2001C19.8628 3.60002 20.4 4.13729 20.4 4.80002V9.60002H21.6V4.80002C21.6 3.47454 20.5255 2.40002 19.2001 2.40002H4.80054ZM2.40061 15.6V13.2H3.60058V15.6C3.60058 16.2628 4.13782 16.8 4.80054 16.8H19.2001C19.8628 16.8 20.4 16.2628 20.4 15.6V13.2H21.6V15.6C21.6 16.9255 20.5255 18 19.2001 18H15.6003V20.4H17.4001C17.7315 20.4 18.0001 20.6687 18.0001 21C18.0001 21.3313 17.7315 21.6 17.4001 21.6H6.60048C6.26912 21.6 6.0005 21.3313 6.0005 21C6.0005 20.6687 6.26912 20.4 6.60048 20.4H8.40043V18H4.80054C3.47509 18 2.40061 16.9255 2.40061 15.6ZM14.4003 18H9.6004V20.4H14.4003V18ZM9.5725 5.22107C9.49678 4.97874 9.27673 4.81031 9.02306 4.80048C8.76938 4.79064 8.53697 4.94154 8.44272 5.17728L6.19464 10.8H3C2.66864 10.8 2.40002 11.0687 2.40002 11.4C2.40002 11.7314 2.66864 12 3 12H6.60091C6.84629 12 7.06692 11.8506 7.15801 11.6228L8.93046 7.18964L11.4271 15.1789C11.5001 15.4126 11.7076 15.5784 11.9516 15.5981C12.1955 15.6178 12.427 15.4872 12.5364 15.2683L15.5997 9.14167L16.8629 11.6684C16.9645 11.8716 17.1723 12 17.3995 12H20.9994C21.3309 12 21.5994 11.7314 21.5994 11.4C21.5994 11.0687 21.3309 10.8 20.9994 10.8H17.7703L16.1363 7.5317C16.0347 7.32842 15.8268 7.20002 15.5997 7.20002C15.3724 7.20002 15.1647 7.32842 15.063 7.5317L12.1285 13.4007L9.5725 5.22107Z" fill="#43BF87"/>
</svg>
