<svg width="24" height="24" viewBox="0 0 24 24" fill="none" xmlns="http://www.w3.org/2000/svg">
<path d="M2.57141 9.76843V17.7857C2.57141 19.7976 4.20237 21.4286 6.21427 21.4286H12.4281C12.1309 21.0329 11.8783 20.6019 11.6778 20.1429H6.21427C4.91246 20.1429 3.85713 19.0875 3.85713 17.7857V9.76843C3.65277 9.8262 3.43713 9.85715 3.21427 9.85715C2.9914 9.85715 2.77577 9.8262 2.57141 9.76843Z" fill="white"/>
<path d="M21.4286 6.21427V12.4281C21.0329 12.1309 20.6019 11.8783 20.1429 11.6778V6.21427C20.1429 4.91246 19.0875 3.85713 17.7857 3.85713H6.21429C5.23938 3.85713 4.4027 4.44899 4.04398 5.293C3.7859 5.19594 3.50629 5.14284 3.21429 5.14284C3.04325 5.14284 2.87646 5.16105 2.71576 5.19566C3.15643 3.67951 4.55596 2.57141 6.21429 2.57141H17.7857C19.7976 2.57141 21.4286 4.20237 21.4286 6.21427Z" fill="white"/>
<path d="M8.35715 12.8571H13.2008C12.7916 13.2367 12.4319 13.6688 12.1325 14.1428H8.35715C8.00211 14.1428 7.71429 13.855 7.71429 13.5C7.71429 13.1449 8.00211 12.8571 8.35715 12.8571Z" fill="white"/>
<path d="M1.71429 7.5C1.71429 8.09837 2.06466 8.61489 2.57144 8.85566C2.76627 8.94823 2.98424 9 3.21429 9C3.44435 9 3.66231 8.94823 3.85715 8.85566C4.36393 8.61489 4.71429 8.09837 4.71429 7.5C4.71429 6.90202 4.36439 6.38577 3.85815 6.14482C3.66306 6.05197 3.44475 6 3.21429 6C2.9845 6 2.76677 6.05168 2.5721 6.14403C2.06497 6.38464 1.71429 6.90137 1.71429 7.5Z" fill="white"/>
<path d="M8.35715 9.42859C8.00211 9.42859 7.71429 9.71642 7.71429 10.0714C7.71429 10.4265 8.00211 10.7143 8.35715 10.7143H15.6429C15.9979 10.7143 16.2857 10.4265 16.2857 10.0714C16.2857 9.71642 15.9979 9.42859 15.6429 9.42859H8.35715Z" fill="white"/>
<path d="M23.1429 17.5714C23.1429 20.6485 20.6485 23.1429 17.5714 23.1429C14.4944 23.1429 12 20.6485 12 17.5714C12 14.4944 14.4944 12 17.5714 12C20.6485 12 23.1429 14.4944 23.1429 17.5714ZM18 14.1429C18 13.9062 17.8081 13.7143 17.5714 13.7143C17.3348 13.7143 17.1429 13.9062 17.1429 14.1429V17.1429H14.1429C13.9062 17.1429 13.7143 17.3348 13.7143 17.5714C13.7143 17.8081 13.9062 18 14.1429 18H17.1429V21C17.1429 21.2367 17.3348 21.4286 17.5714 21.4286C17.8081 21.4286 18 21.2367 18 21V18H21C21.2367 18 21.4286 17.8081 21.4286 17.5714C21.4286 17.3348 21.2367 17.1429 21 17.1429H18V14.1429Z" fill="white"/>
</svg>
