<svg width="113" height="53" viewBox="0 0 113 53" fill="none" xmlns="http://www.w3.org/2000/svg">
<path d="M34.2463 26.339C37.329 27.0734 39.7132 28.5913 41.399 30.8927C43.133 33.145 44 35.7646 44 38.7514C44 43.3051 42.5068 46.8305 39.5205 49.3277C36.5824 51.7759 32.3437 53 26.8046 53H0V1H26.0821C31.2841 1 35.3782 2.15066 38.3645 4.45198C41.3508 6.75329 42.844 10.1073 42.844 14.5141C42.844 17.5499 42.0493 20.1205 40.4598 22.226C38.9184 24.2825 36.8473 25.6535 34.2463 26.339ZM16.0394 21.2712H22.2529C23.6979 21.2712 24.7575 20.9774 25.4319 20.3898C26.1544 19.8023 26.5156 18.8964 26.5156 17.6723C26.5156 16.3992 26.1544 15.4689 25.4319 14.8814C24.7575 14.2448 23.6979 13.9266 22.2529 13.9266H16.0394V21.2712ZM23.3366 39.9266C24.7816 39.9266 25.8413 39.6573 26.5156 39.1186C27.2381 38.5311 27.5993 37.6008 27.5993 36.3277C27.5993 33.8305 26.1784 32.5819 23.3366 32.5819H16.0394V39.9266H23.3366Z" fill="#40B681"/>
<path d="M50 26.5C50 21.3472 51.0303 16.7588 53.0909 12.7347C55.2006 8.71065 58.1934 5.59445 62.0693 3.38611C65.9452 1.12871 70.5079 0 75.7576 0C80.2713 0 84.2944 0.858798 87.8268 2.57639C91.4084 4.24491 94.303 6.625 96.5108 9.71667C98.7677 12.8083 100.264 16.4153 101 20.5375H83.7792C82.9942 18.8199 81.8658 17.4949 80.3939 16.5625C78.9711 15.581 77.3276 15.0903 75.4632 15.0903C72.7157 15.0903 70.5325 16.1208 68.9134 18.1819C67.3434 20.2431 66.5584 23.0157 66.5584 26.5C66.5584 29.9843 67.3434 32.7569 68.9134 34.8181C70.5325 36.8792 72.7157 37.9097 75.4632 37.9097C77.3276 37.9097 78.9711 37.4435 80.3939 36.5111C81.8658 35.5296 82.9942 34.1801 83.7792 32.4625H101C100.264 36.5847 98.7677 40.1917 96.5108 43.2833C94.303 46.375 91.4084 48.7796 87.8268 50.4972C84.2944 52.1657 80.2713 53 75.7576 53C70.5079 53 65.9452 51.8958 62.0693 49.6875C58.1934 47.4301 55.2006 44.2894 53.0909 40.2653C51.0303 36.2412 50 31.6528 50 26.5Z" fill="#40B681"/>
<circle cx="107" cy="47" r="6" fill="#F2994A"/>
</svg>
